<svg version="1.2" xmlns="http://www.w3.org/2000/svg" viewBox="0 0 512 512" width="512" height="512">
	<title>Predator_icon-icons</title>
	<style>
		.s0 { fill: #7986cb }
		.s1 { fill: #9fa8da }
		.s2 { fill: #3949ab }
		.s3 { fill: #607d8b }
		.s4 { fill: #1a237e }
		.s5 { fill: #c5cae9 }
		.s6 { fill: #ffaec3 }
		.s7 { fill: #ff9db2 }
		.s8 { fill: #f18da2 }
		.s9 { fill: #eef1f6 }
		.s10 { fill: #594667 }
		.s11 { fill: #ffdf97 }
	</style>
	<g id="Preditor">
		<path id="Layer" class="s0" d="m125.9 284.8l25.5-110.4h209.2l25.5 110.4c4.7 23.2-8.1 46.5-30.2 53.5l-99.9 33.7-99.9-33.7c-22.1-7-36.1-30.3-30.2-53.5z"/>
		<path id="Layer" class="s1" d="m314.1 372c0 12.7-10.5 23.2-23.2 23.2h-69.8c-12.7 0-23.2-10.5-23.2-23.2v-81.4l34.9-34.8h46.4l34.9 34.8z"/>
		<g id="Layer">
			<path id="Layer" class="s2" d="m511.6 337.1c0 7-4.6 11.6-11.6 11.6-7 0-11.6-4.6-11.6-11.6 0-224.3-94.1-275.4-133.6-287 39.5 27.9 110.4 101.1 110.4 268.4v53.5c0 6.9-4.7 11.6-11.7 11.6-6.9 0-11.6-4.7-11.6-11.6v-53.5c0-209.2-116.2-259.1-119.7-261.4-6.9-2.4-9.3-9.3-6.9-15.2 1.1-4.6 5.8-6.9 10.4-6.9 0-7 5.8-11.6 11.6-11.6 7 0 174.3 8.1 174.3 313.7z"/>
			<path id="Layer" class="s2" d="m419.8 313.9v92.9c0 7-4.6 11.6-11.6 11.6-7 0-11.6-4.6-11.6-11.6v-92.9c0-183.6-86-233.6-87.1-233.6-5.9-3.5-8.2-10.5-4.7-16.3 2.3-5.8 9.3-8.1 15.1-4.6 3.5 2.3 98.8 55.8 99.9 254.5z"/>
			<path id="Layer" class="s2" d="m70.1 318.5v53.5c0 6.9-4.7 11.6-11.6 11.6-7 0-11.7-4.7-11.7-11.6v-53.5c0-168.5 72.1-241.7 111.6-268.4-40.7 10.4-134.8 59.2-134.8 287 0 7-4.6 11.6-11.6 11.6-7 0-11.6-4.6-11.6-11.6 0-305.6 167.3-313.7 174.3-313.7 5.8 0 11.6 4.6 11.6 11.6 4.6 0 9.3 2.3 11.6 6.9 2.3 5.9-1.2 12.8-7 15.2-4.6 2.3-120.8 52.2-120.8 261.4z"/>
			<path id="Layer" class="s2" d="m208.4 64c3.4 5.8 1.1 12.8-4.7 16.3-1.2 0-87.1 50-87.1 233.6v92.9c0 7-4.7 11.6-11.7 11.6-6.9 0-11.6-4.6-11.6-11.6v-92.9c0-198.7 95.3-252.2 98.8-254.5 5.8-2.3 12.8-1.2 16.3 4.6z"/>
		</g>
		<path id="Layer" class="s3" d="m128.2 186z"/>
		<path id="Layer" class="s3" d="m128.2 174.4v11.6z"/>
		<path id="Layer" class="s3" d="m81.7 93.1z"/>
		<path id="Layer" class="s4" d="m350.1 196.5c0 0 7 26.7-7 44.1-30.2 39.6-63.9 15.2-68.5 10.5-4.7-4.6-7-19.7-7-19.7 51.1-9.3 82.5-34.9 82.5-34.9z"/>
		<path id="Layer" class="s4" d="m243.2 230.2c0 0-2.3 15.1-7 19.7-4.6 5.9-38.3 29.1-68.5-10.4-14-17.4-7-44.2-7-44.2 0 0 32.6 26.8 82.5 34.9z"/>
		<path id="Layer" class="s1" d="m256 232.5c-77.1 0-139.4-51.9-139.4-116.2 0-64.2 62.3-116.2 139.4-116.2 77.1 0 139.4 52 139.4 116.2 0 64.3-62.3 116.2-139.4 116.2z"/>
		<path id="Layer" class="s0" d="m256 193c-64.3 0-116.2-40.5-116.2-90.6 0-50.2 51.9-90.7 116.2-90.7 64.3 0 116.2 40.5 116.2 90.7 0 50.1-51.9 90.6-116.2 90.6z"/>
		<path id="Layer" class="s5" d="m258.3 155.8c-51.4 0-92.9-32.2-92.9-72 0-39.9 41.5-72.1 92.9-72.1 51.4 0 93 32.2 93 72.1 0 39.8-41.6 72-93 72z"/>
	</g>
	<g id="Pencil">
		<path id="Layer" class="s6" d="m158.6 470l196.6-34.8c-3 3.2-4.6 7.1-3.9 11.5 0.2 2.2 1.3 4.2 2.7 5.8l-192.5 34.1z"/>
		<path id="Layer" class="s7" d="m154.9 449.1l196.6-34.8c-3 3.2-4.6 7.1-3.9 11.5 0.8 4.3 3.7 7.5 7.6 9.4l-196.6 34.8z"/>
		<path id="Layer" class="s8" d="m152.2 432.3l192.5-34.1c-1.1 2.3-1.2 4.3-0.8 6.7 0.8 4.3 3.7 7.5 7.6 9.4l-196.6 34.8z"/>
		<path id="Layer" class="s9" d="m138.7 434.9l13.3-2.3 9.6 54.1-13.3 2.3z"/>
		<path id="Layer" class="s10" d="m148.2 488.9l-27 4.8c-6.4 1.2-12.8-2.6-13.7-8.1l-6-33.5c-0.9-5.5 3.7-11.3 10.1-12.4l27.1-4.8z"/>
		<path id="Layer" class="s11" d="m393 417.7c0.4 2.4 1.3 4.7 3 6.4l-42.2 28.6c-1.4-1.5-2.2-3.4-2.7-5.8-0.7-4.3 0.9-8.3 3.9-11.5-3.9-1.9-6.8-5-7.6-9.4-0.7-4.3 0.9-8.3 3.9-11.5-3.9-1.9-6.8-5.1-7.6-9.4-0.4-2.4-0.1-4.6 0.8-6.6l49.2 12.2c-0.8 2.4-1.1 4.7-0.7 7z"/>
		<path id="Layer" class="s10" d="m410 414.7l-14 9.4c-1.5-1.9-2.6-4-3-6.4-0.4-2.3-0.4-4.8 0.7-7z"/>
	</g>
</svg>
